<?xml version="1.0" encoding="UTF-8" standalone="no" ?>
<!DOCTYPE svg PUBLIC "-//W3C//DTD SVG 1.1//EN" "http://www.w3.org/Graphics/SVG/1.1/DTD/svg11.dtd">
<svg xmlns="http://www.w3.org/2000/svg" xmlns:xlink="http://www.w3.org/1999/xlink" version="1.1" width="1080" height="1080" viewBox="0 0 1080 1080" xml:space="preserve">
<desc>Created with Fabric.js 5.2.4</desc>
<defs>
</defs>
<g transform="matrix(1 0 0 1 540 540)" id="8f8f7ddd-9009-416a-8d13-f8c73279672e"  >
</g>
<g transform="matrix(1 0 0 1 540 540)" id="6a432846-13a0-438e-a86c-b0fae7aa64fb"  >
<rect style="stroke: none; stroke-width: 1; stroke-dasharray: none; stroke-linecap: butt; stroke-dashoffset: 0; stroke-linejoin: miter; stroke-miterlimit: 4; fill: rgb(255,255,255); fill-rule: nonzero; opacity: 1; visibility: hidden;" vector-effect="non-scaling-stroke"  x="-540" y="-540" rx="0" ry="0" width="1080" height="1080" />
</g>
<g transform="matrix(1 0 0 1 583.64 540)" style="" id="a5526f48-9c24-4e07-b9d2-600199867ff7"  >
		<text xml:space="preserve" font-family="Lato" font-size="40" font-style="normal" font-weight="400" style="stroke: none; stroke-width: 1; stroke-dasharray: none; stroke-linecap: butt; stroke-dashoffset: 0; stroke-linejoin: miter; stroke-miterlimit: 4; fill: rgb(0,0,0); fill-rule: nonzero; opacity: 1; white-space: pre;" ><tspan x="-87.86" y="12.57" >ADIBLOG</tspan></text>
</g>
<g transform="matrix(1 0 0 1 405.3 540.36)"  >
<path style="stroke: none; stroke-width: 1; stroke-dasharray: none; stroke-linecap: butt; stroke-dashoffset: 0; stroke-linejoin: miter; stroke-miterlimit: 4; fill: rgb(76,159,227); fill-rule: nonzero; opacity: 1;" vector-effect="non-scaling-stroke"  transform=" translate(-47, -47.73)" d="M 53.47 19.76 L 48.19 14.670000000000002 C 47.772576752507995 14.264971610609686 47.211180691155946 14.042628134871316 46.6296291612622 14.052007998256698 C 46.04807763136846 14.061387861642082 45.494144088381624 14.301720524547209 45.089999999999996 14.720000000000002 L 13.93 47 C 13.526265602011364 47.41873538644744 13.305699879103658 47.98088424685863 13.316955913317639 48.56244601458095 C 13.328211947531619 49.14400778230327 13.570364932533444 49.69720079675492 13.99 50.1 L 45.79 80.8 C 46.20873538644744 81.20373439798864 46.77088424685863 81.42430012089633 47.35244601458095 81.41304408668236 C 47.93400778230327 81.40178805246838 48.48720079675492 81.15963506746655 48.89 80.74 L 80 48.47 C 80.41346447522398 48.062216982743124 80.64623000423292 47.505723567143065 80.64623000423292 46.925000000000004 C 80.64623000423292 46.34427643285694 80.41346447522398 45.787783017256885 80 45.38 L 68 33.74 L 76 25.450000000000003 L 91.12 40.1 C 94.84387080579067 43.69869571566504 94.94682664843086 49.63432386092085 91.35000000000001 53.36 L 54.16 91.87 C 50.56130428433495 95.59387080579067 44.62567613907915 95.69682664843086 40.9 92.10000000000001 L 2.8999999999999986 55.37000000000001 C -0.8363687767181833 51.77901050527317 -0.9572077301986028 45.83999971755032 2.63 42.1 L 39.82 3.6 C 41.54685682708447 1.8092564078334479 43.91495527512495 0.7787371138589672 46.4023104356873 0.7355929444072804 C 48.88966559624964 0.6924487749555936 51.292078312612794 1.6402216460180958 53.07999999999999 3.3699999999999934 L 61.47 11.469999999999999 Z" stroke-linecap="round" />
</g>
<g transform="matrix(1 0 0 1 440.98 539.62)"  >
<path style="stroke: none; stroke-width: 1; stroke-dasharray: none; stroke-linecap: butt; stroke-dashoffset: 0; stroke-linejoin: miter; stroke-miterlimit: 4; fill: rgb(49,106,153); fill-rule: nonzero; opacity: 1;" vector-effect="non-scaling-stroke"  transform=" translate(-82.68, -47)" d="M 76.22 75 L 81.49 80.09 C 81.90082087397666 80.50158393240726 82.45847173421167 80.7328736315349 83.03999999999999 80.7328736315349 C 83.62152826578831 80.7328736315349 84.17917912602333 80.50158393240726 84.58999999999999 80.09 L 115.74999999999999 47.82 C 116.15373439798863 47.40126461355256 116.37430012089632 46.839115753141364 116.36304408668235 46.25755398541905 C 116.35178805246836 45.67599221769673 116.10963506746654 45.12279920324508 115.68999999999998 44.72 L 83.9 13.93 C 83.48126461355257 13.526265602011366 82.91911575314137 13.305699879103662 82.33755398541906 13.316955913317642 C 81.75599221769674 13.328211947531623 81.20279920324509 13.570364932533446 80.80000000000001 13.99 L 49.64 46.25 C 49.22841606759274 46.66082087397667 48.997126368465096 47.218471734211676 48.997126368465096 47.8 C 48.997126368465096 48.381528265788326 49.22841606759274 48.93917912602333 49.64 49.35 L 61.75 61 L 53.75 69.28999999999999 L 38.57 54.63 C 36.77925640783345 52.903143172915534 35.748737113858965 50.53504472487504 35.705592944407286 48.0476895643127 C 35.6624487749556 45.56033440375035 36.610221646018104 43.1579216873872 38.34 41.370000000000005 L 75.52 2.86 C 79.11869571566504 -0.8638708057906745 85.05432386092086 -0.9668266484308594 88.78 2.629999999999997 L 126.78 39.36 C 128.57135701806484 41.08857752740783 129.6021219049578 43.45833995905248 129.64526192511272 45.94733155668606 C 129.68840194526763 48.43632315431964 128.7403785075621 50.840382595358236 127.01 52.629999999999995 L 89.87 91.13 C 88.14142247259218 92.92135701806484 85.77166004094752 93.9521219049578 83.28266844331394 93.99526192511271 C 80.79367684568037 94.03840194526764 78.38961740464177 93.0903785075621 76.60000000000001 91.36 L 68.21000000000001 83.26 Z" stroke-linecap="round" />
</g>
</svg>